<?xml version="1.0" encoding="UTF-8" standalone="no"?>
<svg
   viewBox="0 0 512 512"
   width="512pt"
   height="512pt"
   version="1.1"
   id="svg134"
   sodipodi:docname="ruler-combined-solid-gray.svg"
   inkscape:version="1.2.1 (9c6d41e, 2022-07-14)"
   xmlns:inkscape="http://www.inkscape.org/namespaces/inkscape"
   xmlns:sodipodi="http://sodipodi.sourceforge.net/DTD/sodipodi-0.dtd"
   xmlns="http://www.w3.org/2000/svg"
   xmlns:svg="http://www.w3.org/2000/svg">
  <defs
     id="defs138" />
  <sodipodi:namedview
     id="namedview136"
     pagecolor="#ffffff"
     bordercolor="#000000"
     borderopacity="0.25"
     inkscape:showpageshadow="2"
     inkscape:pageopacity="0.0"
     inkscape:pagecheckerboard="0"
     inkscape:deskcolor="#d1d1d1"
     showgrid="false"
     inkscape:zoom="0.4609375"
     inkscape:cx="258.16949"
     inkscape:cy="256"
     inkscape:window-width="1309"
     inkscape:window-height="456"
     inkscape:window-x="298"
     inkscape:window-y="356"
     inkscape:window-maximized="0"
     inkscape:current-layer="svg134" />
  <!--! Font Awesome Pro 6.4.0 by @fontawesome - https://fontawesome.com License - https://fontawesome.com/license (Commercial License) Copyright 2023 Fonticons, Inc. -->
  <path
     d="M.2 468.9C2.7 493.1 23.1 512 48 512l96 0 320 0c26.5 0 48-21.5 48-48l0-96c0-26.5-21.5-48-48-48l-48 0 0 80c0 8.8-7.2 16-16 16s-16-7.2-16-16l0-80-64 0 0 80c0 8.8-7.2 16-16 16s-16-7.2-16-16l0-80-64 0 0 80c0 8.8-7.2 16-16 16s-16-7.2-16-16l0-80-80 0c-8.8 0-16-7.2-16-16s7.2-16 16-16l80 0 0-64-80 0c-8.8 0-16-7.2-16-16s7.2-16 16-16l80 0 0-64-80 0c-8.8 0-16-7.2-16-16s7.2-16 16-16l80 0 0-48c0-26.5-21.5-48-48-48L48 0C21.5 0 0 21.5 0 48L0 368l0 96c0 1.7 .1 3.3 .2 4.9z"
     id="path132"
     style="fill:#ffffff" />
</svg>
